# File created by Blade
# Date/Time:  Fri Jan 16 15:45:56 2015
#---------------------------------------------------------
:version 1.10
:name HOM
:units
  mass 1.0
  length 1.000000
  angle deg
:documentation
     Acclaim Skeleton File
:root
   axis xyz
   order TX TY TZ RX RY RZ
   position 0.000000 0.000000 0.000000
   orientation 0 0 0
:bonedata
   begin
      id 1
      name Spine_dum
      direction 0.000000 1.000000 0.000000
      length 7.170412
      axis 0.0 0.0 0.0 xyz
   end
   begin
      id 2
      name LeftUpLeg_dum
      direction 1.000000 0.000000 0.000000
      length 4.318350
      axis 0.0 0.0 0.0 xyz
   end
   begin
      id 3
      name RightUpLeg_dum
      direction -1.000000 0.000000 0.000000
      length 4.318350
      axis 0.0 0.0 0.0 xyz
   end
   begin
      id 4
      name Spine
      direction 0.000000 1.000000 0.000000
      length 0.000000
      axis 0.0 0.0 0.0 xyz
      dof rx ry rz
   end
   begin
      id 5
      name Spine_dum1
      direction 0.000000 1.000000 0.000000
      length 14.276153
      axis 0.0 0.0 0.0 xyz
   end
   begin
      id 6
      name Spine_dum2
      direction 0.000000 1.000000 0.000000
      length 10.718243
      axis 0.0 0.0 0.0 xyz
   end
   begin
      id 7
      name Spine_dum3
      direction 0.000000 1.000000 0.000000
      length 10.718243
      axis 0.0 0.0 0.0 xyz
   end
   begin
      id 8
      name Head
      direction 0.000000 1.000000 0.000000
      length 4.527550
      axis 0.0 0.0 0.0 xyz
      dof rx ry rz
   end
   begin
      id 9
      name LeftShoulder
      direction 1.000000 0.000000 0.000000
      length 7.058872
      axis 0.0 0.0 -90.0 xyz
      dof rx ry rz
   end
   begin
      id 10
      name LeftArm
      direction 1.000000 0.000000 0.000000
      length 10.955525
      axis 0.0 0.0 -90.0 xyz
      dof rx ry rz
   end
   begin
      id 11
      name LeftForeArm
      direction 1.000000 0.000000 0.000000
      length 8.193716
      axis 0.0 0.0 -90.0 xyz
      dof ry rz rx
   end
   begin
      id 12
      name LeftHand
      direction 0.000000 0.000000 0.000000
      length 0.000000
      axis 0.0 0.0 -90.0 xyz
      dof rx ry rz
   end
   begin
      id 13
      name LeftHand_dum1
      direction 0.000000 0.000000 0.000000
      length 0.000000
      axis 0.0 0.0 -90.0 xyz
   end
   begin
      id 14
      name LeftHand_dum2
      direction 1.000000 0.000000 0.000000
      length 3.937000
      axis 0.0 0.0 -90.0 xyz
   end
   begin
      id 15
      name LeftHandThumb1
      direction 0.000000 0.000000 1.000000
      length 3.937000
      axis 0.0 0.0 -90.0 xyz
      dof rx rz ry
   end
   begin
      id 16
      name RightShoulder
      direction -1.000000 0.000000 0.000000
      length 7.058872
      axis 0.0 0.0 90.0 xyz
      dof rx ry rz
   end
   begin
      id 17
      name RightArm
      direction -1.000000 0.000000 0.000000
      length 10.955525
      axis 0.0 0.0 90.0 xyz
      dof rx ry rz
   end
   begin
      id 18
      name RightForeArm
      direction -1.000000 0.000000 0.000000
      length 8.193716
      axis 0.0 0.0 90.0 xyz
      dof ry rz rx
   end
   begin
      id 19
      name RightHand
      direction 0.000000 0.000000 0.000000
      length 0.000000
      axis 0.0 0.0 90.0 xyz
      dof rx ry rz
   end
   begin
      id 20
      name RightHand_dum1
      direction 0.000000 0.000000 0.000000
      length 0.000000
      axis 0.0 0.0 90.0 xyz
   end
   begin
      id 21
      name RightHand_dum2
      direction -1.000000 0.000000 0.000000
      length 3.937000
      axis 0.0 0.0 90.0 xyz
   end
   begin
      id 22
      name RightHandThumb1
      direction 0.000000 0.000000 1.000000
      length 3.937000
      axis 0.0 0.0 90.0 xyz
      dof rx rz ry
   end
   begin
      id 23
      name LeftUpLeg
      direction 0.000000 -1.000000 0.000000
      length 17.323638
      axis 0.0 0.0 0.0 xyz
      dof rx ry rz
   end
   begin
      id 24
      name LeftLeg
      direction 0.000000 -1.000000 0.000000
      length 16.270368
      axis 0.0 0.0 0.0 xyz
      dof rx ry rz
   end
   begin
      id 25
      name LeftFoot
      direction 0.000000 -0.258819 0.965926
      length 4.922846
      axis 15.0 0.0 0.0 xyz
      dof rx ry rz
   end
   begin
      id 26
      name LeftToeBase
      direction 0.000000 0.000000 1.000000
      length 2.952750
      axis 0.0 0.0 0.0 xyz
      dof rx ry rz
   end
   begin
      id 27
      name RightUpLeg
      direction 0.000000 -1.000000 0.000000
      length 17.323638
      axis 0.0 0.0 0.0 xyz
      dof rx ry rz
   end
   begin
      id 28
      name RightLeg
      direction 0.000000 -1.000000 0.000000
      length 16.270368
      axis 0.0 0.0 0.0 xyz
      dof rx ry rz
   end
   begin
      id 29
      name RightFoot
      direction 0.000000 -0.258819 0.965926
      length 4.922846
      axis 15.0 0.0 0.0 xyz
      dof rx ry rz
   end
   begin
      id 30
      name RightToeBase
      direction 0.000000 0.000000 1.000000
      length 2.952750
      axis 0.0 0.0 0.0 xyz
      dof rx ry rz
   end
:hierarchy
   begin
      root Spine_dum LeftUpLeg_dum RightUpLeg_dum
      Spine_dum Spine
      LeftUpLeg_dum LeftUpLeg
      RightUpLeg_dum RightUpLeg
      Spine Spine_dum1 Spine_dum2 Spine_dum3
      Spine_dum1 Head
      Spine_dum2 LeftShoulder
      Spine_dum3 RightShoulder
      LeftShoulder LeftArm
      LeftArm LeftForeArm
      LeftForeArm LeftHand
      LeftHand LeftHand_dum1 LeftHand_dum2
      LeftHand_dum1 LeftHandThumb1
      RightShoulder RightArm
      RightArm RightForeArm
      RightForeArm RightHand
      RightHand RightHand_dum1 RightHand_dum2
      RightHand_dum1 RightHandThumb1
      LeftUpLeg LeftLeg
      LeftLeg LeftFoot
      LeftFoot LeftToeBase
      RightUpLeg RightLeg
      RightLeg RightFoot
      RightFoot RightToeBase
   end

# File created by Blade
# Date/Time:  Fri Jan 16 15:45:48 2015
# Frame Rate: 120.000 fps
#------------------------------------------------------
:FULLY-SPECIFIED
:DEGREES
1653
root -5.611285 35.295420 -10.343942 1.022334 4.907731 -3.815625
Spine -2.444622 -5.530092 -0.473983
Head -9.817711 -9.940308 2.778620
LeftShoulder -20.985998 9.847474 -15.176384
LeftArm 20.322851 15.765693 -67.094155
LeftForeArm 14.158483 -0.000000 13.924198
LeftHand 2.699843 -0.000000 -7.387154
LeftHandThumb1 -26.253704 0.000000 33.147579
RightShoulder -15.982000 31.641656 -53.687323
RightArm 19.228146 36.166988 -8.575011
RightForeArm -40.992167 -0.000000 13.571234
RightHand -0.746910 -0.000000 -9.773586
RightHandThumb1 -24.326973 -0.000000 -32.862282
LeftUpLeg 5.833720 9.265045 4.957565
LeftLeg -8.965624 -0.000000 0.000000
LeftFoot -12.147884 21.963098 -9.571315
LeftToeBase 21.863664 -0.000000 -0.000000
RightUpLeg 6.260057 -10.940317 1.107216
RightLeg -4.359571 -0.000000 0.000000
RightFoot -6.310350 -29.025362 6.695980
RightToeBase 12.806068 -0.000000 -0.000000
1654
root -5.609481 35.294203 -10.338554 1.066744 4.912471 -3.835547
Spine -2.520375 -5.526235 -0.466917
Head -9.577972 -9.920709 2.743955
LeftShoulder -20.943526 9.883492 -15.114257
LeftArm 20.289239 15.821271 -67.152412
LeftForeArm 14.197839 0.000000 13.894600
LeftHand 2.817342 -0.000000 -7.242560
LeftHandThumb1 -26.253704 0.000000 33.147579
RightShoulder -16.136395 32.037112 -53.997316
RightArm 18.997036 35.996694 -8.294653
RightForeArm -41.359406 -0.000000 13.951973
RightHand -1.264274 -0.000000 -9.467273
RightHandThumb1 -24.326973 -0.000000 -32.862282
LeftUpLeg 5.811359 9.305018 4.971797
LeftLeg -9.004627 -0.000000 0.000000
LeftFoot -12.155646 21.947740 -9.474975
LeftToeBase 22.053551 -0.000000 -0.000000
RightUpLeg 6.221894 -10.901798 1.134342
RightLeg -4.357422 -0.000000 0.000000
RightFoot -6.324704 -29.059822 6.709997
RightToeBase 12.828936 -0.000000 -0.000000
1655
root -5.609865 35.294005 -10.333943 1.081705 4.963655 -3.840250
Spine -2.533621 -5.561655 -0.518503
Head -9.343681 -9.887288 2.743812
LeftShoulder -20.888378 9.903409 -15.019608
LeftArm 20.263821 15.877960 -67.207602
LeftForeArm 14.266352 -0.000000 13.865298
LeftHand 2.866537 -0.000000 -7.113136
LeftHandThumb1 -26.253704 0.000000 33.147579
RightShoulder -16.344704 32.386053 -54.226762
RightArm 18.869053 35.575931 -8.142238
RightForeArm -41.448793 -0.000000 13.985443
RightHand -1.214364 -0.000000 -10.069225
RightHandThumb1 -24.326973 -0.000000 -32.862282
LeftUpLeg 5.797650 9.292217 4.975341
LeftLeg -9.016893 -0.000000 0.000000
LeftFoot -12.154275 21.916118 -9.472960
LeftToeBase 22.059568 -0.000000 -0.000000
RightUpLeg 6.217364 -10.932390 1.143354
RightLeg -4.354030 -0.000000 0.000000
RightFoot -6.329281 -29.082671 6.706779
RightToeBase 12.830970 -0.000000 -0.000000
1656
root -5.610412 35.293022 -10.328833 1.099425 5.009291 -3.845001
Spine -2.574305 -5.614602 -0.543808
Head -9.090036 -9.792338 2.721400
LeftShoulder -20.828784 9.931645 -14.932740
LeftArm 20.228134 15.961338 -67.249008
LeftForeArm 14.314536 -0.000000 13.835716
LeftHand 2.824847 -0.000000 -7.100901
LeftHandThumb1 -26.253704 0.000000 33.147579
RightShoulder -16.485225 32.702376 -54.473259
RightArm 18.673988 35.196987 -7.971365
RightForeArm -41.570432 -0.000000 14.258446
RightHand -1.575026 -0.000000 -10.162432
RightHandThumb1 -24.326973 -0.000000 -32.862282
LeftUpLeg 5.787859 9.253485 4.978096
LeftLeg -9.039056 -0.000000 0.000000
LeftFoot -12.160209 21.924079 -9.493156
LeftToeBase 22.085549 -0.000000 -0.000000
RightUpLeg 6.216254 -10.939790 1.153080
RightLeg -4.362822 -0.000000 0.000000
RightFoot -6.328082 -29.107198 6.725227
RightToeBase 12.765108 -0.000000 -0.000000
1657
root -5.610194 35.292467 -10.323339 1.110153 5.039114 -3.847655
Spine -2.616529 -5.653665 -0.559358
Head -8.834103 -9.737727 2.682332
LeftShoulder -20.766135 9.974927 -14.859415
LeftArm 20.207550 16.034713 -67.278575
LeftForeArm 14.338390 -0.000000 13.789920
LeftHand 2.841432 -0.000000 -7.125302
LeftHandThumb1 -26.253704 0.000000 33.147579
RightShoulder -16.582077 32.952091 -54.629333
RightArm 18.571996 34.920137 -7.851923
RightForeArm -41.725869 -0.000000 14.403305
RightHand -1.637779 0.000000 -10.360563
RightHandThumb1 -24.326973 -0.000000 -32.862282
LeftUpLeg 5.791029 9.256629 4.981840
LeftLeg -9.063217 -0.000000 0.000000
LeftFoot -12.154067 21.897452 -9.495970
LeftToeBase 22.126373 -0.000000 -0.000000
RightUpLeg 6.216640 -10.951551 1.159771
RightLeg -4.360644 -0.000000 0.000000
RightFoot -6.355400 -29.133997 6.746998
RightToeBase 12.798281 -0.000000 -0.000000
1658
root -5.607861 35.292631 -10.318049 1.119516 5.062338 -3.843924
Spine -2.665719 -5.704425 -0.568888
Head -8.533382 -9.710922 2.561444
LeftShoulder -20.712371 10.023219 -14.808889
LeftArm 20.188470 16.106097 -67.290025
LeftForeArm 14.408499 -0.000000 13.759929
LeftHand 2.731651 0.000000 -7.316949
LeftHandThumb1 -26.253704 0.000000 33.147579
RightShoulder -16.584501 32.985901 -54.633036
RightArm 18.477519 34.826395 -7.847755
RightForeArm -41.791358 0.000000 14.528833
RightHand -1.887194 -0.000000 -10.392181
RightHandThumb1 -24.326973 -0.000000 -32.862282
LeftUpLeg 5.788189 9.262616 4.974353
LeftLeg -9.067773 -0.000000 0.000000
LeftFoot -12.146095 21.877406 -9.504487
LeftToeBase 22.052067 -0.000000 -0.000000
RightUpLeg 6.223080 -10.953615 1.151211
RightLeg -4.364704 -0.000000 0.000000
RightFoot -6.363482 -29.122934 6.780884
RightToeBase 12.775965 -0.000000 -0.000000
1659
root -5.614036 35.293222 -10.318229 1.126944 5.189783 -3.820416
Spine -2.680821 -5.842044 -0.653306
Head -8.275172 -9.657186 2.567298
LeftShoulder -20.630664 10.048107 -14.697814
LeftArm 20.166002 16.135533 -67.307826
LeftForeArm 14.446211 -0.000000 13.735513
LeftHand 2.727856 -0.000000 -7.424278
LeftHandThumb1 -26.253704 0.000000 33.147579
RightShoulder -16.579970 32.952270 -54.546487
RightArm 18.379806 34.828783 -7.866367
RightForeArm -41.775392 0.000000 14.689196
RightHand -2.242047 0.000000 -10.283122
RightHandThumb1 -24.326973 -0.000000 -32.862282
LeftUpLeg 5.722505 9.188046 4.960612
LeftLeg -9.001630 -0.000000 0.000000
LeftFoot -12.141024 21.826071 -9.484380
LeftToeBase 22.052785 -0.000000 -0.000000
RightUpLeg 6.239533 -11.064477 1.143157
RightLeg -4.384190 -0.000000 0.000000
RightFoot -6.369912 -29.157857 6.747554
RightToeBase 12.805748 -0.000000 -0.000000
1660
root -5.612012 35.293503 -10.312523 1.123229 5.221503 -3.805972
Spine -2.703908 -5.927289 -0.684630
Head -7.995066 -9.592669 2.483508
LeftShoulder -20.631657 10.060761 -14.652384
LeftArm 20.147223 16.157468 -67.325305
LeftForeArm 14.497323 -0.000000 13.724381
LeftHand 2.720181 0.000000 -7.451450
LeftHandThumb1 -26.253704 0.000000 33.147579
RightShoulder -16.497879 32.826961 -54.366889
RightArm 18.370880 34.832358 -8.016486
RightForeArm -41.471712 -0.000000 14.612437
RightHand -2.399978 -0.000000 -10.300233
RightHandThumb1 -24.326973 -0.000000 -32.862282
LeftUpLeg 5.725564 9.181596 4.946333
LeftLeg -8.991730 -0.000000 0.000000
LeftFoot -12.143336 21.806407 -9.499860
LeftToeBase 22.049243 -0.000000 -0.000000
RightUpLeg 6.257263 -11.107976 1.123278
RightLeg -4.385172 -0.000000 0.000000
RightFoot -6.371715 -29.153455 6.750645
RightToeBase 12.804208 -0.000000 -0.000000
1661
root -5.609306 35.292829 -10.306258 1.109152 5.203895 -3.793679
Spine -2.717754 -5.963967 -0.710323
Head -7.714949 -9.482129 2.415858
LeftShoulder -20.623319 10.089269 -14.606693
LeftArm 20.137841 16.158009 -67.353174
LeftForeArm 14.504347 0.000000 13.703703
LeftHand 2.717551 -0.000000 -7.469915
LeftHandThumb1 -26.253704 0.000000 33.147579
RightShoulder -16.467649 32.942600 -54.405327
RightArm 18.273186 34.803171 -7.890001
RightForeArm -41.471310 -0.000000 14.915362
RightHand -2.774634 -0.000000 -10.174319
RightHandThumb1 -24.326973 -0.000000 -32.862282
LeftUpLeg 5.758296 9.196578 4.935207
LeftLeg -8.996999 -0.000000 0.000000
LeftFoot -12.155865 21.788318 -9.569714
LeftToeBase 22.027655 -0.000000 -0.000000
RightUpLeg 6.283588 -11.079785 1.106255
RightLeg -4.390374 -0.000000 0.000000
RightFoot -6.372900 -29.178457 6.724526
RightToeBase 12.790627 -0.000000 -0.000000
1662
root -5.605753 35.292707 -10.299170 1.091810 5.182531 -3.791789
Spine -2.758179 -5.998743 -0.688075
Head -7.402131 -9.358861 2.268214
LeftShoulder -20.586761 10.125820 -14.593648
LeftArm 20.090241 16.108233 -67.385454
LeftForeArm 14.567130 -0.000000 13.709862
LeftHand 2.650349 0.000000 -7.622903
LeftHandThumb1 -26.253704 0.000000 33.147579
RightShoulder -16.176566 32.553450 -54.098075
RightArm 18.088023 35.213239 -8.120114
RightForeArm -41.302248 -0.000000 15.037004
RightHand -2.797868 -0.000000 -10.166924
RightHandThumb1 -24.326973 -0.000000 -32.862282
LeftUpLeg 5.792598 9.230458 4.933791
LeftLeg -8.994401 -0.000000 0.000000
LeftFoot -12.167421 21.792764 -9.542615
LeftToeBase 22.039344 -0.000000 -0.000000
RightUpLeg 6.309221 -11.070378 1.095951
RightLeg -4.388948 -0.000000 0.000000
RightFoot -6.386012 -29.187683 6.722485
RightToeBase 12.833766 -0.000000 -0.000000
1663
root -5.602718 35.292688 -10.289592 1.062855 5.175627 -3.784645
Spine -2.785498 -6.047810 -0.680385
Head -7.101604 -9.254224 2.143082
LeftShoulder -20.547804 10.184730 -14.577423
LeftArm 20.063326 16.071087 -67.406102
LeftForeArm 14.521096 -0.000000 13.720314
LeftHand 2.606528 0.000000 -7.701756
LeftHandThumb1 -26.253704 0.000000 33.147579
RightShoulder -15.885433 32.141928 -53.758685
RightArm 17.954379 35.604712 -8.381092
RightForeArm -41.135585 -0.000000 15.098131
RightHand -2.782052 -0.000000 -10.126851
RightHandThumb1 -24.326973 -0.000000 -32.862282
LeftUpLeg 5.843148 9.242034 4.930144
LeftLeg -9.000191 -0.000000 0.000000
LeftFoot -12.176175 21.778908 -9.566108
LeftToeBase 22.011628 -0.000000 -0.000000
RightUpLeg 6.358000 -11.062094 1.075871
RightLeg -4.394668 -0.000000 0.000000
RightFoot -6.387818 -29.182699 6.726285
RightToeBase 12.857641 -0.000000 -0.000000
1664
root -5.598910 35.292886 -10.282391 1.029933 5.130784 -3.773412
Spine -2.796380 -6.066327 -0.672772
Head -6.821578 -9.147783 2.004684
LeftShoulder -20.531962 10.208419 -14.577491
LeftArm 20.035622 16.012458 -67.426054
LeftForeArm 14.499708 -0.000000 13.726649
LeftHand 2.578135 -0.000000 -7.716657
LeftHandThumb1 -26.253704 0.000000 33.147579
RightShoulder -15.572787 31.697837 -53.414401
RightArm 17.772410 35.956214 -8.702585
RightForeArm -40.856887 -0.000000 15.191126
RightHand -2.814832 -0.000000 -10.086546
RightHandThumb1 -24.326973 -0.000000 -32.862282
LeftUpLeg 5.899626 9.292900 4.920598
LeftLeg -9.001035 -0.000000 0.000000
LeftFoot -12.198390 21.773182 -9.600241
LeftToeBase 22.029025 -0.000000 -0.000000
RightUpLeg 6.401048 -11.009848 1.050857
RightLeg -4.395673 -0.000000 0.000000
RightFoot -6.395698 -29.181189 6.738173
RightToeBase 12.829081 -0.000000 -0.000000
